<mxfile host="app.diagrams.net" modified="2023-09-18T09:59:53.565Z" agent="Mozilla/5.0 (Windows NT 10.0; Win64; x64) AppleWebKit/537.36 (KHTML, like Gecko) Chrome/116.0.0.0 Safari/537.36" version="21.6.6" etag="E91zp8j6mPn-T6VwmZLQ" type="github">
  <diagram name="Page-1" id="vwHrIPJ2uxo8wb9SOkrq">
    <mxGraphModel>
      <root>
        <mxCell id="0" />
        <mxCell id="1" parent="0" />
      </root>
    </mxGraphModel>
  </diagram>
</mxfile>
